<svg xmlns="http://www.w3.org/2000/svg" viewBox="0 0 785.227 512"><defs><style>.a{fill:#fff;}.b{fill:none;stroke:#fff;stroke-miterlimit:10;}</style></defs><title>icon-list</title><path class="a" d="M-289.574-42.415a53.8606,53.8606,0,0,0-53.801,53.801V74.092a53.5882,53.5882,0,0,0-18.984-3.451A53.6235,53.6235,0,0,0-397.47,83.7a53.6745,53.6745,0,0,0-37.656-15.407,53.6,53.6,0,0,0-22.088,4.75V-4.199A53.86,53.86,0,0,0-511.015-58,53.8606,53.8606,0,0,0-564.816-4.199V187.672c-13.014-17.783-27.247-37.006-34.942-46.587a54.58,54.58,0,0,0-4.698-5.506l-.008.018-.125-.134.017-.017-.756-.774-.044-.045-.294-.302a85.1476,85.1476,0,0,0-16.617-13.636,61.2283,61.2283,0,0,0-12.952-6.031,55.104,55.104,0,0,0-17.115-2.749h-.24l-.667.009a53.4188,53.4188,0,0,0-42.156,21.474,53.4359,53.4359,0,0,0-8.861,46.569c2.135,7.579,6.877,19.277,14.136,34.898,10.47,22.506,26.465,51.301,55.215,99.408,25.006,41.89,48.17,65.188,84.767,95.984C-517.588,437.641-467.23,454-415.422,454c84.402,0,148.932-41.934,168.386-109.452,5.818-20.167,11.209-41.596,11.263-61.728V11.386A53.8612,53.8612,0,0,0-289.574-42.415ZM-415.422,425.926c-44.381,0-88.726-13.656-116.667-37.157-32.95-27.728-54.754-48.732-78.745-88.895-29.48-49.354-44.264-76.263-53.845-96.848-9.581-20.612-11.92-28.368-12.525-30.512a25.6039,25.6039,0,0,1,4.226-22.257,25.6473,25.6473,0,0,1,20.193-10.275h.436a26.992,26.992,0,0,1,8.407,1.37,32.6471,32.6471,0,0,1,6.92,3.23,58.027,58.027,0,0,1,11.271,9.35l-.036-.045.916.961c2.26,2.384,3.024,3.22,3.024,3.22-.008,0-1.29-1.37-2.401-2.544,10.354,11.724,63.604,85.692,63.604,85.692a13.2285,13.2285,0,0,0,10.631,5.355,13.3439,13.3439,0,0,0,4.181-.676,13.261,13.261,0,0,0,9.091-12.596V-4.199a25.7357,25.7357,0,0,1,25.726-25.735A25.7427,25.7427,0,0,1-485.28-4.199V186.586c0,26.047,24.304,47.138,50.35,47.148a46.8266,46.8266,0,0,0,36.579-17.765,46.695,46.695,0,0,0,36.205,17.374,46.8568,46.8568,0,0,0,46.836-46.97V11.386A25.7357,25.7357,0,0,1-289.575-14.34a25.7287,25.7287,0,0,1,25.726,25.726V282.73c-.044,15.977-4.412,34.107-10.158,54.041C-292.128,399.621-353.819,425.926-415.422,425.926Zm-19.704-329.56A25.7282,25.7282,0,0,1-409.4,122.093v64.493a25.6311,25.6311,0,0,1-25.53,25.834,25.8732,25.8732,0,0,1-25.842-25.834V141.984h-.089V122.093A25.7366,25.7366,0,0,1-435.126,96.366Zm98.502,53.802v36.206a25.5908,25.5908,0,0,1-25.522,25.655,25.9365,25.9365,0,0,1-25.939-25.655V124.443a25.73,25.73,0,0,1,25.726-25.735,25.7319,25.7319,0,0,1,25.735,25.735v25.725Z" transform="translate(706.227 58)"/><polygon class="a" points="81.356 212.847 80.475 211.931 81.979 213.523 81.356 212.847"/><line class="b" x1="727.227" y1="88" x2="785.227" y2="88"/><line class="b" x1="727.227" y1="108" x2="785.227" y2="108"/><line class="b" x1="727.227" y1="128" x2="785.227" y2="128"/></svg>