<?xml version="1.0" encoding="utf-8"?>
<!-- Generator: Adobe Illustrator 21.1.0, SVG Export Plug-In . SVG Version: 6.00 Build 0)  -->
<svg version="1.1" id="_x32_" xmlns="http://www.w3.org/2000/svg" xmlns:xlink="http://www.w3.org/1999/xlink" x="0px" y="0px"
	 viewBox="0 0 512 512" style="enable-background:new 0 0 512 512;" xml:space="preserve">
<style type="text/css">
	.st0{fill:#FFFFFF;}
</style>
<g>
	<path class="st0" d="M437.4,15.6c-29.7,0-53.8,24.1-53.8,53.8v62.7c-5.9-2.2-12.3-3.5-19-3.5c-13.4,0-25.7,4.9-35.1,13.1
		c-9.7-9.5-23-15.4-37.7-15.4c-7.9,0-15.3,1.7-22.1,4.8V53.8C269.8,24.1,245.7,0,216,0c-29.7,0-53.8,24.1-53.8,53.8v191.9
		c-13-17.8-27.2-37-34.9-46.6c-1.7-2.4-3.5-4.2-4.7-5.5l0,0l-0.1-0.1l0,0l-0.8-0.8l0,0l-0.3-0.3c-5.7-5.9-10.9-10.1-16.6-13.6
		c-4.3-2.6-8.5-4.6-13-6c-5.6-1.8-11.4-2.7-17.1-2.7h-0.2l-0.7,0c-16.7,0.2-32.1,8.1-42.2,21.5c-10.1,13.4-13.3,30.4-8.9,46.6
		c2.1,7.6,6.9,19.3,14.1,34.9c10.5,22.5,26.5,51.3,55.2,99.4c25,41.9,48.2,65.2,84.8,96c32.6,27.4,82.9,43.7,134.7,43.7
		c84.4,0,148.9-41.9,168.4-109.5c5.8-20.2,11.2-41.6,11.3-61.7v-6.3v-6.2V69.4C491.2,39.7,467.1,15.6,437.4,15.6z M311.6,483.9
		c-44.4,0-88.7-13.7-116.7-37.2C162,419,140.2,398,116.2,357.9c-29.5-49.4-44.3-76.3-53.8-96.8c-9.6-20.6-11.9-28.4-12.5-30.5
		c-2.1-7.7-0.6-15.9,4.2-22.3c4.8-6.4,12.2-10.2,20.2-10.3h0.4c3.1,0,5.9,0.6,8.4,1.4c2.6,0.8,4.8,2,6.9,3.2
		c3.9,2.4,7.3,5.3,11.3,9.4l0,0l0.9,1c2.3,2.4,3,3.2,3,3.2c0,0-1.3-1.4-2.4-2.5c10.4,11.7,63.6,85.7,63.6,85.7
		c2.5,3.4,6.5,5.4,10.6,5.4c1.4,0,2.8-0.2,4.2-0.7c5.4-1.8,9.1-6.9,9.1-12.6v-44.1V53.8c0-14.2,11.5-25.7,25.7-25.7
		c14.2,0,25.7,11.5,25.7,25.7v154.4v36.4c0,26,24.3,47.1,50.3,47.1c14.9,0,28-7,36.6-17.8c8.6,10.5,21.5,17.4,36.2,17.4
		c25.9,0,46.8-21,46.8-47V200V69.4c0-14.2,11.5-25.7,25.7-25.7c14.2,0,25.7,11.5,25.7,25.7v258.9c0,0,0,1.7,0,6.2c0,1.7,0,3.7,0,6.2
		c0,16-4.4,34.1-10.2,54C434.9,457.6,373.2,483.9,311.6,483.9z M291.9,154.4c14.2,0,25.7,11.5,25.7,25.7v28.1v36.2v0.2
		c0,14.3-11.3,25.8-25.5,25.8c-14.3,0-25.8-11.6-25.8-25.8V200h-0.1v-19.9C266.1,165.9,277.7,154.4,291.9,154.4z M390.4,208.2v36.2
		c0,14.2-11.4,25.6-25.5,25.7c-14.2,0-25.9-11.5-25.9-25.7V200v-17.5c0-14.2,11.5-25.7,25.7-25.7c14.2,0,25.7,11.5,25.7,25.7
		L390.4,208.2L390.4,208.2z"/>
	<polygon class="st0" points="102.1,212.8 101.2,211.9 102.8,213.5 	"/>
</g>
</svg>
